<?xml version="1.0" encoding="UTF-8"?>
<!-- Generated by Pixelmator Pro 3.3.11 -->
<svg width="64" height="64" viewBox="0 0 64 64" xmlns="http://www.w3.org/2000/svg" xmlns:xlink="http://www.w3.org/1999/xlink">
    <g id="Group">
        <path id="Path" fill="#aaaaaa" stroke="none" d="M 10 6 L 54 6 C 56.209141 6 58 7.790863 58 10 L 58 54 C 58 56.209141 56.209141 58 54 58 L 10 58 C 7.790861 58 6 56.209141 6 54 L 6 10 C 6 7.790863 7.790861 6 10 6 Z"/>
        <mask id="mask1" maskUnits="userSpaceOnUse" maskContentUnits="userSpaceOnUse" mask-type="alpha">
            <path id="path1" fill="#aaaaaa" stroke="none" d="M 10 6 L 54 6 C 56.209141 6 58 7.790863 58 10 L 58 54 C 58 56.209141 56.209141 58 54 58 L 10 58 C 7.790861 58 6 56.209141 6 54 L 6 10 C 6 7.790863 7.790861 6 10 6 Z"/>
        </mask>
        <g id="g1" mask="url(#mask1)">
            <path id="Rectangle" fill="#f9e231" fill-rule="evenodd" stroke="none" d="M 63.902821 27.968624 L 70.972504 20.896168 L 44.097179 -5.96862 L 37.027496 1.103832 Z"/>
        </g>
    </g>
</svg>
